<svg xmlns="http://www.w3.org/2000/svg" width="1280" height="720" viewBox="0 0 1280 720">
  <rect x="0" y="0" width="1280" height="720" fill="#FFFFFF" />

  <g id="background-accent">
    <rect x="0" y="0" width="1280" height="10" fill="#C7000A" />
    <rect x="56" y="112" width="1168" height="1" fill="#D9D9D9" />
    <rect x="56" y="664" width="1168" height="1" fill="#EDEDED" />
  </g>

  <g id="header">
    <text x="56" y="58" font-family="Microsoft YaHei, PingFang SC, Arial, sans-serif" font-size="34" font-weight="700" fill="#1D1D1B">白盒代码评价流程：以电视台元服务一多适配为例</text>
    <text fill="#666666" font-family="Microsoft YaHei, PingFang SC, Arial, sans-serif" font-size="15" x="58" y="84">Case: .local-cases/20260608T105703_case_167600460_dbee0885</text><text fill="#666666" font-family="Microsoft YaHei, PingFang SC, Arial, sans-serif" font-size="15" x="58" y="104">Task ID 167600460 · continuation / incremental</text><path fill="#C7000A" d="M1052,46 H1220 A4,4 0 0 1 1224,50 V78 A4,4 0 0 1 1220,82 H1052 A4,4 0 0 1 1048,78 V50 A4,4 0 0 1 1052,46 Z" />
    <text x="1070" y="70" font-family="Microsoft YaHei, PingFang SC, Arial, sans-serif" font-size="15" font-weight="700" fill="#FFFFFF">Build Success = true</text>
  </g>

  <g id="takeaway">
    <path fill="#C7000A" fill-opacity="0.06" stroke="#D9D9D9" stroke-width="1" d="M62,132 H1218 A6,6 0 0 1 1224,138 V182 A6,6 0 0 1 1218,188 H62 A6,6 0 0 1 56,182 V138 A6,6 0 0 1 62,132 Z" />
    <path fill="#C7000A" d="M60,132 H60 A4,4 0 0 1 64,136 V184 A4,4 0 0 1 60,188 H60 A4,4 0 0 1 56,184 V136 A4,4 0 0 1 60,132 Z" />
    <text fill="#1D1D1B" font-family="Microsoft YaHei, PingFang SC, Arial, sans-serif" font-weight="700" font-size="18" x="82" y="155">本样例评价流程把远程任务、增量补丁、静态检查、规则判定和评分结果</text><text fill="#1D1D1B" font-family="Microsoft YaHei, PingFang SC, Arial, sans-serif" font-weight="700" font-size="18" x="82" y="179">组织为一条可追溯证据链。</text></g>

  <g id="input-card">
    <path fill="#F7F7F5" stroke="#D9D9D9" stroke-width="1" d="M62,214 H410 A6,6 0 0 1 416,220 V418 A6,6 0 0 1 410,424 H62 A6,6 0 0 1 56,418 V220 A6,6 0 0 1 62,214 Z" />
    
  <g transform="translate(82.0, 238.0) scale(1.25)" fill="none" stroke="#C7000A" stroke-width="2">
    <path d="M14 3v4a1 1 0 0 0 1 1h4" />
    <path d="M5 13v-8a2 2 0 0 1 2 -2h7l5 5v11a2 2 0 0 1 -2 2h-5.5m-9.5 -2h7m-3 -3l3 3l-3 3" />
  </g>
    <text x="124" y="260" font-family="Microsoft YaHei, PingFang SC, Arial, sans-serif" font-size="20" font-weight="700" fill="#1D1D1B">输入材料</text>
    <text fill="#1D1D1B" font-family="Microsoft YaHei, PingFang SC, Arial, sans-serif" font-size="15" x="82" y="304">原始工程包：TelevisionNews1.0.0_one2many.zip</text><text fill="#1D1D1B" font-family="Microsoft YaHei, PingFang SC, Arial, sans-serif" font-size="15" x="82" y="332">生成后工程：execution_2296_output.zip</text><text fill="#1D1D1B" font-family="Microsoft YaHei, PingFang SC, Arial, sans-serif" font-size="15" x="82" y="360">增量补丁：execution_2296_changes.patch</text><text fill="#1D1D1B" font-family="Microsoft YaHei, PingFang SC, Arial, sans-serif" font-size="15" x="82" y="388">Rubric 评分载荷：rubric-scoring-payload.json</text><text fill="#1D1D1B" font-family="Microsoft YaHei, PingFang SC, Arial, sans-serif" font-size="15" x="82" y="416">规则判定载荷：rule-agent-bootstrap-payload.json</text></g>

  <g id="evidence-card">
    <path fill="#FFFFFF" stroke="#D9D9D9" stroke-width="1" d="M466,214 H814 A6,6 0 0 1 820,220 V418 A6,6 0 0 1 814,424 H466 A6,6 0 0 1 460,418 V220 A6,6 0 0 1 466,214 Z" />
    
  <g transform="translate(486.0, 238.0) scale(1.25)" fill="none" stroke="#F26B43" stroke-width="2">
    <path d="M14 3v4a1 1 0 0 0 1 1h4" />
    <path d="M17 21h-10a2 2 0 0 1 -2 -2v-14a2 2 0 0 1 2 -2h7l5 5v11a2 2 0 0 1 -2 2" />
    <path d="M12 10l0 4" />
    <path d="M10 12l4 0" />
    <path d="M10 17l4 0" />
  </g>
    <text x="528" y="260" font-family="Microsoft YaHei, PingFang SC, Arial, sans-serif" font-size="20" font-weight="700" fill="#1D1D1B">白盒证据</text>
    <text fill="#1D1D1B" font-family="Microsoft YaHei, PingFang SC, Arial, sans-serif" font-size="15" x="486" y="304">Patch 全量读取：2709 行</text><text fill="#1D1D1B" font-family="Microsoft YaHei, PingFang SC, Arial, sans-serif" font-size="15" x="486" y="332">实质变更源码文件：11 个</text><text fill="#1D1D1B" font-family="Microsoft YaHei, PingFang SC, Arial, sans-serif" font-size="15" x="486" y="360">覆盖：断点工具、窗口模型、入口监听</text><text fill="#1D1D1B" font-family="Microsoft YaHei, PingFang SC, Arial, sans-serif" font-size="15" x="486" y="388">页面：首页、详情页、我的页、订阅列表、标签栏</text><text fill="#1D1D1B" font-family="Microsoft YaHei, PingFang SC, Arial, sans-serif" font-size="15" x="486" y="416">Code Linter：成功，2 条有效告警</text></g>

  <g id="output-card">
    <path fill="#FFFFFF" stroke="#D9D9D9" stroke-width="1" d="M870,214 H1218 A6,6 0 0 1 1224,220 V418 A6,6 0 0 1 1218,424 H870 A6,6 0 0 1 864,418 V220 A6,6 0 0 1 870,214 Z" />
    
  <g transform="translate(890.0, 238.0) scale(1.25)" fill="none" stroke="#C7000A" stroke-width="2">
    <path d="M9 5h-2a2 2 0 0 0 -2 2v12a2 2 0 0 0 2 2h10a2 2 0 0 0 2 -2v-12a2 2 0 0 0 -2 -2h-2" />
    <path d="M9 5a2 2 0 0 1 2 -2h2a2 2 0 0 1 2 2a2 2 0 0 1 -2 2h-2a2 2 0 0 1 -2 -2" />
    <path d="M9 17v-5" />
    <path d="M12 17v-1" />
    <path d="M15 17v-3" />
  </g>
    <text x="932" y="260" font-family="Microsoft YaHei, PingFang SC, Arial, sans-serif" font-size="20" font-weight="700" fill="#1D1D1B">输出产物</text>
    <text fill="#1D1D1B" font-family="Microsoft YaHei, PingFang SC, Arial, sans-serif" font-size="15" x="890" y="304">Rule Agent：38 条候选规则判定</text><text fill="#1D1D1B" font-family="Microsoft YaHei, PingFang SC, Arial, sans-serif" font-size="15" x="890" y="332">判定分布：10 通过，26 不适用，2 违规</text><text fill="#1D1D1B" font-family="Microsoft YaHei, PingFang SC, Arial, sans-serif" font-size="15" x="890" y="360">规则合并：117 条结果进入融合</text><text fill="#1D1D1B" font-family="Microsoft YaHei, PingFang SC, Arial, sans-serif" font-size="15" x="890" y="388">最终文件：outputs/result.json</text><text fill="#1D1D1B" font-family="Microsoft YaHei, PingFang SC, Arial, sans-serif" font-size="15" x="890" y="416">报告文件：outputs/report.html</text></g>

  <g id="workflow">
    <text x="56" y="470" font-family="Microsoft YaHei, PingFang SC, Arial, sans-serif" font-size="20" font-weight="700" fill="#1D1D1B">流程节点</text>
    <line x1="94" y1="548" x2="1186" y2="548" stroke="#D9D9D9" stroke-width="2" />
    <polygon points="1186,548 1174,541 1174,555" fill="#D9D9D9" />

    <g id="flow-01">
      <circle cx="96" cy="548" r="25" fill="#C7000A" />
      <text x="88" y="555" font-family="Microsoft YaHei, PingFang SC, Arial, sans-serif" font-size="18" font-weight="700" fill="#FFFFFF">1</text>
      <text x="56" y="600" font-family="Microsoft YaHei, PingFang SC, Arial, sans-serif" font-size="13" fill="#1D1D1B">远程任务输入</text>
    </g>
    <g id="flow-02">
      <circle cx="232" cy="548" r="25" fill="#F26B43" />
      <text x="224" y="555" font-family="Microsoft YaHei, PingFang SC, Arial, sans-serif" font-size="18" font-weight="700" fill="#FFFFFF">2</text>
      <text x="193" y="600" font-family="Microsoft YaHei, PingFang SC, Arial, sans-serif" font-size="13" fill="#1D1D1B">沙箱准备</text>
    </g>
    <g id="flow-03">
      <circle cx="368" cy="548" r="25" fill="#F26B43" />
      <text x="360" y="555" font-family="Microsoft YaHei, PingFang SC, Arial, sans-serif" font-size="18" font-weight="700" fill="#FFFFFF">3</text>
      <text x="326" y="600" font-family="Microsoft YaHei, PingFang SC, Arial, sans-serif" font-size="13" fill="#1D1D1B">Patch/工程解析</text>
    </g>
    <g id="flow-04">
      <circle cx="504" cy="548" r="25" fill="#F26B43" />
      <text x="496" y="555" font-family="Microsoft YaHei, PingFang SC, Arial, sans-serif" font-size="18" font-weight="700" fill="#FFFFFF">4</text>
      <text x="459" y="600" font-family="Microsoft YaHei, PingFang SC, Arial, sans-serif" font-size="13" fill="#1D1D1B">Code Linter</text>
    </g>
    <g id="flow-05">
      <circle cx="640" cy="548" r="25" fill="#F26B43" />
      <text x="632" y="555" font-family="Microsoft YaHei, PingFang SC, Arial, sans-serif" font-size="18" font-weight="700" fill="#FFFFFF">5</text>
      <text x="599" y="600" font-family="Microsoft YaHei, PingFang SC, Arial, sans-serif" font-size="13" fill="#1D1D1B">Rubric Agent</text>
    </g>
    <g id="flow-06">
      <circle cx="776" cy="548" r="25" fill="#F26B43" />
      <text x="768" y="555" font-family="Microsoft YaHei, PingFang SC, Arial, sans-serif" font-size="18" font-weight="700" fill="#FFFFFF">6</text>
      <text x="742" y="600" font-family="Microsoft YaHei, PingFang SC, Arial, sans-serif" font-size="13" fill="#1D1D1B">Rule Agent</text>
    </g>
    <g id="flow-07">
      <circle cx="912" cy="548" r="25" fill="#F26B43" />
      <text x="904" y="555" font-family="Microsoft YaHei, PingFang SC, Arial, sans-serif" font-size="18" font-weight="700" fill="#FFFFFF">7</text>
      <text x="879" y="600" font-family="Microsoft YaHei, PingFang SC, Arial, sans-serif" font-size="13" fill="#1D1D1B">规则合并</text>
    </g>
    <g id="flow-08">
      <circle cx="1048" cy="548" r="25" fill="#C7000A" />
      <text x="1040" y="555" font-family="Microsoft YaHei, PingFang SC, Arial, sans-serif" font-size="18" font-weight="700" fill="#FFFFFF">8</text>
      <text x="1015" y="600" font-family="Microsoft YaHei, PingFang SC, Arial, sans-serif" font-size="13" fill="#1D1D1B">分数融合</text>
    </g>
    <g id="flow-09">
      <circle cx="1184" cy="548" r="25" fill="#C7000A" />
      <text x="1176" y="555" font-family="Microsoft YaHei, PingFang SC, Arial, sans-serif" font-size="18" font-weight="700" fill="#FFFFFF">9</text>
      <text x="1151" y="600" font-family="Microsoft YaHei, PingFang SC, Arial, sans-serif" font-size="13" fill="#1D1D1B">报告生成</text>
    </g>
  </g>

  <g id="footer">
    <text x="56" y="690" font-family="Consolas, Courier New, monospace" font-size="12" fill="#919191">Source: outputs/result.json, agent-output/*.json, code-linter/summary.json</text>
    <text x="1192" y="690" font-family="Microsoft YaHei, PingFang SC, Arial, sans-serif" font-size="12" fill="#919191">01 / 02</text>
  </g>
</svg>